<?xml version="1.0" standalone="no"?>
<!DOCTYPE svg PUBLIC "-//W3C//DTD SVG 20010904//EN"
 "http://www.w3.org/TR/2001/REC-SVG-20010904/DTD/svg10.dtd">
<svg version="1.0" xmlns="http://www.w3.org/2000/svg"
 width="84.000000pt" height="76.000000pt" viewBox="0 0 84.000000 76.000000"
 preserveAspectRatio="xMidYMid meet">
<metadata>
Created by potrace 1.13, written by Peter Selinger 2001-2015
</metadata>
<g transform="translate(0.000000,76.000000) scale(0.100000,-0.100000)"
fill="#000000" stroke="none">
<path d="M346 743 c-3 -3 -6 -32 -6 -63 0 -31 -6 -76 -14 -101 -8 -24 -17 -70
-21 -102 -6 -55 -9 -60 -41 -73 -44 -19 -42 -19 -46 24 -3 34 -6 37 -35 40
l-33 3 0 -60 c0 -34 -3 -61 -7 -61 -5 0 -36 -35 -70 -78 -64 -82 -84 -138 -69
-198 l7 -27 57 56 c52 51 64 58 139 76 45 12 84 21 87 21 3 0 6 -17 6 -37 0
-20 7 -45 17 -55 10 -11 17 -37 18 -61 1 -41 2 -42 36 -42 28 0 35 4 37 23 2
13 -1 29 -7 36 -6 7 -8 16 -4 19 11 12 23 8 23 -8 0 -8 4 -15 9 -15 5 0 11
-12 13 -27 3 -24 8 -28 33 -28 28 0 30 3 36 43 3 23 11 48 17 54 7 7 12 31 12
55 0 50 -1 50 97 24 61 -16 83 -28 138 -76 l65 -57 0 70 0 71 -70 85 c-68 83
-70 88 -70 141 l0 55 -35 0 c-35 0 -35 0 -35 -45 l0 -45 -45 22 c-42 21 -45
24 -45 63 0 22 -7 66 -15 97 -8 31 -17 86 -21 122 -7 70 -24 91 -24 29 0 -34
-1 -35 -18 -20 -10 10 -27 17 -37 17 -10 0 -27 -7 -37 -17 -17 -15 -18 -14
-18 15 0 31 -11 47 -24 35z"/>
</g>
</svg>
