<?xml version="1.0" standalone="no"?>
<!DOCTYPE svg PUBLIC "-//W3C//DTD SVG 20010904//EN"
 "http://www.w3.org/TR/2001/REC-SVG-20010904/DTD/svg10.dtd">
<svg version="1.0" xmlns="http://www.w3.org/2000/svg"
 width="240.000000pt" height="240.000000pt" viewBox="0 0 240.000000 240.000000"
 preserveAspectRatio="xMidYMid meet">
<metadata>
Created by potrace 1.13, written by Peter Selinger 2001-2015
</metadata>
<g transform="translate(0.000000,240.000000) scale(0.100000,-0.100000)"
fill="#000000" stroke="none">
<path d="M1121 2307 c-19 -24 -58 -120 -75 -187 -9 -36 -20 -117 -25 -180 -6
-63 -18 -162 -27 -220 l-16 -105 -60 2 c-33 1 -62 4 -65 7 -3 2 -7 23 -10 45
-3 23 -10 41 -15 41 -5 0 -6 -17 -2 -37 6 -36 37 -188 49 -243 l6 -25 -11 25
c-12 28 -48 181 -60 255 -4 28 -11 59 -15 69 -6 15 -5 17 5 11 9 -6 11 -4 5 4
-13 21 -22 0 -48 -114 -13 -60 -39 -171 -56 -245 -71 -312 -117 -486 -136
-513 -19 -29 -96 -80 -300 -198 -74 -43 -103 -55 -112 -47 -7 6 -13 17 -13 24
0 30 -34 5 -60 -45 -7 -13 -27 -85 -46 -160 -32 -130 -39 -201 -21 -201 5 0
37 25 72 55 l62 55 112 0 111 0 0 -49 0 -49 63 -11 c35 -6 83 -11 106 -11 34
0 51 -7 78 -31 20 -17 50 -38 68 -46 33 -16 33 -17 34 -81 0 -92 6 -96 142
-100 197 -7 299 17 307 74 2 11 12 26 23 33 13 7 18 8 14 1 -4 -6 -4 -28 0
-50 6 -36 10 -41 48 -51 59 -16 303 -8 341 11 16 8 31 20 33 27 3 7 -13 3 -39
-9 -59 -29 -217 -38 -237 -14 -12 14 -8 16 48 16 85 0 201 19 229 37 20 12 23
22 20 53 -3 33 0 40 18 44 11 3 41 23 65 44 41 36 49 39 124 45 121 9 130 14
126 70 l-3 47 132 0 131 0 65 -55 c36 -30 69 -55 73 -55 16 0 2 120 -27 225
-37 137 -45 155 -71 179 -20 18 -20 18 -32 -7 -10 -22 -15 -24 -41 -17 -24 8
-126 61 -227 120 -14 8 -60 34 -102 57 -42 23 -83 53 -92 67 -15 23 -81 270
-122 456 -9 41 -31 138 -50 215 -18 77 -36 153 -40 169 -6 27 -7 28 -19 10 -7
-10 -16 -46 -20 -79 -7 -66 -34 -172 -35 -140 -1 11 3 36 8 55 15 56 24 136
15 127 -5 -5 -9 -14 -9 -20 -3 -38 -19 -67 -39 -68 -11 -1 -37 -2 -57 -3 l-37
-1 -16 107 c-9 59 -23 162 -31 230 -17 155 -29 205 -72 296 -33 70 -55 88 -67
56 -3 -8 -2 -13 3 -10 5 3 20 -56 34 -132 33 -180 39 -224 30 -219 -5 3 -8
-39 -7 -94 1 -70 -2 -99 -10 -99 -7 0 -12 21 -14 58 -2 63 -4 95 -23 319 -7
91 -16 150 -22 146 -5 -3 -13 1 -18 8 -7 11 -9 9 -9 -6 0 -11 -4 -69 -10 -130
-12 -139 -22 -297 -23 -352 0 -27 -5 -43 -12 -43 -9 0 -12 28 -11 100 1 67 -3
99 -10 96 -13 -5 39 301 61 357 9 21 -17 24 -34 4z m-166 -943 l0 -95 -62 -33
-63 -34 0 27 c0 14 -5 42 -10 61 -10 34 -9 36 45 88 34 34 59 51 67 46 7 -4
10 -4 6 1 -6 6 7 35 16 35 0 0 1 -43 1 -96z m577 -93 l-15 -58 -59 26 -58 26
0 98 0 99 74 -66 74 -66 -16 -59z m-415 -643 c9 -11 13 -65 16 -175 1 -32 1
-33 47 -33 46 0 46 1 47 33 3 110 7 164 16 175 15 19 29 14 17 -7 -16 -31 -13
-34 35 -29 25 3 48 2 51 -3 11 -19 25 -9 14 10 -13 25 0 33 25 15 19 -14 19
-15 -2 -36 -12 -11 -38 -24 -59 -27 -29 -5 -40 -12 -45 -31 l-7 -25 -1 28 c-1
15 -6 27 -12 27 -7 0 -9 -26 -7 -75 2 -50 -1 -75 -8 -75 -6 0 -9 -10 -7 -22 4
-22 1 -23 -56 -23 -54 0 -61 2 -62 20 0 20 -1 20 -8 1 -4 -11 -6 26 -5 81 3
79 0 104 -11 113 -9 8 -15 8 -15 2 0 -6 4 -12 8 -14 4 -1 5 -16 1 -33 l-6 -30
-7 28 c-6 21 -14 27 -35 27 -15 0 -42 11 -60 24 l-32 24 23 16 c25 18 38 5 19
-18 -9 -11 -6 -15 11 -19 12 -4 24 -4 27 -2 2 3 -1 5 -7 5 -7 0 -12 4 -12 9 0
4 23 6 51 3 43 -4 50 -2 43 9 -12 19 -14 39 -4 39 4 0 12 -6 17 -12z"/>
<path d="M1591 1758 c-1 -9 12 -72 28 -140 15 -68 36 -159 45 -203 29 -136 59
-260 64 -269 3 -6 6 -19 7 -30 4 -44 59 -202 78 -223 24 -27 245 -159 340
-204 113 -52 85 -26 -35 34 -62 32 -155 83 -207 114 -84 51 -96 63 -107 98
-27 85 -104 375 -128 485 -50 219 -84 355 -85 338z"/>
<path d="M721 1614 c-79 -357 -173 -701 -198 -724 -29 -27 -200 -133 -290
-180 -46 -24 -81 -45 -79 -48 15 -14 364 197 392 237 18 26 76 219 69 231 -3
5 -2 10 3 10 8 0 27 74 67 260 7 36 28 127 45 202 18 76 30 143 28 149 -2 7
-19 -55 -37 -137z"/>
</g>
</svg>
